{
  "asset": {
    "generator": "Khronos glTF Blender I/O v1.6.16",
    "version": "2.0"
  },
  "scene": 0,
  "scenes": [
    {
      "name": "Scene",
      "nodes": [0, 1, 2]
    }
  ],
  "nodes": [
    {
      "name": "Light",
      "rotation": [
        0.16907575726509094, 0.7558803558349609, -0.27217137813568115,
        0.570947527885437
      ],
      "translation": [4.076245307922363, 5.903861999511719, -1.0054539442062378]
    },
    {
      "name": "Camera",
      "rotation": [
        0.483536034822464, 0.33687159419059753, -0.20870360732078552,
        0.7804827094078064
      ],
      "translation": [7.358891487121582, 4.958309173583984, 6.925790786743164]
    },
    {
      "mesh": 0,
      "name": "elevator",
      "rotation": [0.7071068286895752, 0, 0, 0.7071068286895752]
    }
  ],
  "materials": [
    {
      "doubleSided": true,
      "name": "M_Model",
      "pbrMetallicRoughness": {
        "baseColorFactor": [
          0.800000011920929, 0.800000011920929, 0.800000011920929, 1
        ],
        "metallicFactor": 0,
        "roughnessFactor": 0.5
      }
    }
  ],
  "meshes": [
    {
      "name": "elevator",
      "primitives": [
        {
          "attributes": {
            "POSITION": 0,
            "NORMAL": 1
          },
          "indices": 2,
          "material": 0
        }
      ]
    }
  ],
  "accessors": [
    {
      "bufferView": 0,
      "componentType": 5126,
      "count": 2121,
      "max": [0.467972993850708, 0.5950520038604736, 0.013700000010430813],
      "min": [-0.29152700304985046, -0.091948002576828, -1.0065220594406128],
      "type": "VEC3"
    },
    {
      "bufferView": 1,
      "componentType": 5126,
      "count": 2121,
      "type": "VEC3"
    },
    {
      "bufferView": 2,
      "componentType": 5123,
      "count": 3864,
      "type": "SCALAR"
    }
  ],
  "bufferViews": [
    {
      "buffer": 0,
      "byteLength": 25452,
      "byteOffset": 0
    },
    {
      "buffer": 0,
      "byteLength": 25452,
      "byteOffset": 25452
    },
    {
      "buffer": 0,
      "byteLength": 7728,
      "byteOffset": 50904
    }
  ],
  "buffers": [
    {
      "byteLength": 58632,
      "uri": "data:application/octet-stream;base64,"
    }
  ]
}
